<?xml version="1.0" encoding="UTF-8"?><svg id="Layer_1" xmlns="http://www.w3.org/2000/svg" xmlns:xlink="http://www.w3.org/1999/xlink" viewBox="0 0 890 500"><defs><style>.cls-1{fill:none;}.cls-1,.cls-2,.cls-3{stroke-width:0px;}.cls-4{clip-path:url(#clippath-1);}.cls-2,.cls-3{fill:#fff;}.cls-3{fill-rule:evenodd;}.cls-5{clip-path:url(#clippath);}</style><clipPath id="clippath"><rect class="cls-1" x="1.64" y="44.74" width="886.73" height="410.52"/></clipPath><clipPath id="clippath-1"><rect class="cls-1" x="1.64" y="44.74" width="886.73" height="410.52"/></clipPath></defs><g class="cls-5"><g class="cls-4"><path class="cls-2" d="m91.16,363.11h-2.8v-27.99h2.8v27.99Zm24.22-22.26c2.62,0,4.75.81,6.41,2.42,1.65,1.62,2.48,3.96,2.48,7.03v12.81h-2.76v-12.49c0-2.38-.59-4.19-1.78-5.45-1.19-1.25-2.81-1.88-4.86-1.88s-3.79.67-5.04,2c-1.26,1.34-1.88,3.3-1.88,5.89v11.93h-2.8v-21.86h2.8v3.72c.69-1.34,1.69-2.36,3-3.06,1.31-.71,2.79-1.06,4.44-1.06m31.31,2.76h-5.09v19.5h-2.8v-19.5h-3.04v-2.36h3.04v-1.52c0-2.38.61-4.12,1.82-5.24,1.21-1.12,3.18-1.68,5.91-1.68v2.4c-1.82,0-3.09.35-3.82,1.04-.73.69-1.1,1.86-1.1,3.48v1.52h5.09v2.36Zm13.41-6.49c-.56,0-1.04-.2-1.44-.6-.4-.4-.6-.89-.6-1.48s.2-1.07.6-1.46c.4-.39.88-.58,1.44-.58s1.04.19,1.44.58c.4.39.6.88.6,1.46s-.2,1.08-.6,1.48c-.4.4-.88.6-1.44.6m1.4,25.99h-2.8v-21.86h2.8v21.86Zm24.22-22.26c2.62,0,4.75.81,6.41,2.42,1.65,1.62,2.48,3.96,2.48,7.03v12.81h-2.76v-12.49c0-2.38-.59-4.19-1.78-5.45-1.19-1.25-2.81-1.88-4.87-1.88s-3.79.67-5.04,2c-1.26,1.34-1.88,3.3-1.88,5.89v11.93h-2.8v-21.86h2.8v3.72c.69-1.34,1.69-2.36,3-3.06,1.31-.71,2.79-1.06,4.44-1.06m24.1-3.72c-.56,0-1.04-.2-1.44-.6-.4-.4-.6-.89-.6-1.48s.2-1.07.6-1.46c.4-.39.88-.58,1.44-.58s1.04.19,1.44.58c.4.39.6.88.6,1.46s-.2,1.08-.6,1.48c-.4.4-.88.6-1.44.6m1.4,25.99h-2.8v-21.86h2.8v21.86Zm17.61-19.5v13.57c0,1.34.25,2.26.76,2.76.51.51,1.4.76,2.68.76h2.56v2.4h-3c-1.98,0-3.44-.46-4.4-1.38-.96-.92-1.44-2.44-1.44-4.54v-13.57h-3.04v-2.36h3.04v-5.49h2.84v5.49h6.01v2.36h-6.01Zm38,7.45c0,.96-.03,1.7-.08,2.2h-18.14c.08,1.66.48,3.07,1.2,4.24s1.67,2.06,2.84,2.66c1.17.6,2.46.9,3.84.9,1.82,0,3.34-.44,4.58-1.32,1.24-.88,2.06-2.07,2.46-3.56h2.96c-.53,2.14-1.68,3.88-3.42,5.23-1.75,1.35-3.94,2.02-6.59,2.02-2.06,0-3.9-.46-5.53-1.38-1.63-.92-2.9-2.23-3.82-3.92-.92-1.69-1.38-3.68-1.38-5.95s.45-4.26,1.36-5.97c.91-1.71,2.17-3.02,3.8-3.92,1.63-.91,3.48-1.36,5.57-1.36s3.9.45,5.47,1.36c1.56.91,2.76,2.13,3.6,3.66.84,1.54,1.26,3.24,1.26,5.11m-2.84-.08c.03-1.63-.3-3.02-.98-4.16s-1.61-2.01-2.78-2.6c-1.17-.59-2.46-.88-3.84-.88-2.08,0-3.86.67-5.33,2-1.47,1.34-2.28,3.22-2.44,5.65h15.37Zm42.44-15.86c3.1,0,5.75.56,7.97,1.68,2.22,1.12,3.91,2.74,5.08,4.84,1.17,2.11,1.76,4.62,1.76,7.53s-.59,5.37-1.76,7.47c-1.17,2.1-2.87,3.7-5.08,4.8-2.22,1.11-4.87,1.66-7.97,1.66h-8.29v-27.99h8.29Zm0,25.67c3.9,0,6.87-1.02,8.91-3.06s3.06-4.89,3.06-8.55-1.02-6.56-3.06-8.63c-2.04-2.07-5.01-3.1-8.91-3.1h-5.49v23.34h5.49Zm28.99-23.66c-.56,0-1.04-.2-1.44-.6-.4-.4-.6-.89-.6-1.48s.2-1.07.6-1.46c.4-.39.88-.58,1.44-.58s1.04.19,1.44.58c.4.39.6.88.6,1.46s-.2,1.08-.6,1.48c-.4.4-.88.6-1.44.6m1.4,25.99h-2.8v-21.86h2.8v21.86Zm23.14-22.18c2.06,0,3.84.48,5.37,1.44,1.52.96,2.62,2.18,3.28,3.64v-4.77h2.8v22.42c0,2-.43,3.78-1.3,5.33-.87,1.55-2.08,2.74-3.62,3.58-1.55.84-3.31,1.26-5.29,1.26-2.8,0-5.13-.67-6.99-2-1.86-1.34-3.01-3.15-3.46-5.45h2.76c.48,1.52,1.39,2.74,2.74,3.64,1.35.91,3,1.36,4.95,1.36,1.41,0,2.68-.3,3.8-.9,1.12-.6,2-1.49,2.64-2.66.64-1.17.96-2.56.96-4.16v-5.41c-.69,1.5-1.8,2.73-3.3,3.7-1.51.97-3.29,1.46-5.35,1.46s-3.8-.47-5.39-1.4c-1.59-.93-2.83-2.26-3.72-3.96-.89-1.71-1.34-3.68-1.34-5.93s.45-4.21,1.34-5.91c.89-1.69,2.13-3,3.72-3.92,1.59-.92,3.38-1.38,5.39-1.38m8.65,11.25c0-1.76-.36-3.31-1.08-4.64-.72-1.34-1.7-2.36-2.94-3.08-1.24-.72-2.61-1.08-4.1-1.08s-2.94.35-4.16,1.04c-1.23.69-2.2,1.7-2.9,3.02-.71,1.32-1.06,2.89-1.06,4.7s.35,3.36,1.06,4.7c.71,1.35,1.67,2.38,2.9,3.08,1.23.71,2.62,1.06,4.16,1.06s2.86-.36,4.1-1.08c1.24-.72,2.22-1.75,2.94-3.08s1.08-2.88,1.08-4.64m18.22-15.06c-.56,0-1.04-.2-1.44-.6-.4-.4-.6-.89-.6-1.48s.2-1.07.6-1.46c.4-.39.88-.58,1.44-.58s1.04.19,1.44.58c.4.39.6.88.6,1.46s-.2,1.08-.6,1.48c-.4.4-.88.6-1.44.6m1.4,25.99h-2.8v-21.86h2.8v21.86Zm17.62-19.5v13.57c0,1.34.25,2.26.76,2.76.51.51,1.4.76,2.68.76h2.56v2.4h-3c-1.98,0-3.44-.46-4.4-1.38-.96-.92-1.44-2.44-1.44-4.54v-13.57h-3.04v-2.36h3.04v-5.49h2.84v5.49h6.01v2.36h-6.01Zm16.94,8.53c0-2.24.45-4.21,1.34-5.91.89-1.69,2.13-3,3.72-3.92,1.59-.92,3.38-1.38,5.39-1.38s3.88.48,5.39,1.44c1.51.96,2.6,2.19,3.26,3.68v-4.8h2.8v21.86h-2.8v-4.84c-.69,1.5-1.8,2.73-3.3,3.7-1.51.97-3.3,1.46-5.39,1.46s-3.76-.47-5.35-1.4c-1.59-.93-2.83-2.26-3.72-3.96-.89-1.71-1.34-3.68-1.34-5.93m19.1.04c0-1.76-.36-3.31-1.08-4.64-.72-1.34-1.7-2.36-2.94-3.08-1.24-.72-2.61-1.08-4.1-1.08s-2.94.35-4.16,1.04c-1.23.69-2.2,1.7-2.9,3.02-.71,1.32-1.06,2.89-1.06,4.7s.35,3.36,1.06,4.7c.71,1.35,1.67,2.38,2.9,3.08,1.23.71,2.62,1.06,4.16,1.06s2.86-.36,4.1-1.08c1.24-.72,2.22-1.75,2.94-3.08s1.08-2.88,1.08-4.64m19.62,10.93h-2.8v-29.63h2.8v29.63Zm50.45-19.94c0,2.4-.79,4.34-2.36,5.81-1.57,1.47-3.94,2.2-7.09,2.2h-5.65v11.93h-2.8v-27.99h8.45c3.12,0,5.48.73,7.07,2.2,1.59,1.47,2.38,3.42,2.38,5.85m-9.45,5.61c4.38,0,6.57-1.87,6.57-5.61,0-1.87-.52-3.28-1.56-4.24-1.04-.96-2.71-1.44-5.01-1.44h-5.65v11.29h5.65Zm31.31,14.65c-2.06,0-3.9-.46-5.55-1.38-1.64-.92-2.94-2.23-3.88-3.92-.95-1.69-1.42-3.68-1.42-5.95s.48-4.25,1.44-5.95c.96-1.69,2.27-3,3.92-3.92,1.66-.92,3.51-1.38,5.57-1.38s3.92.46,5.59,1.38c1.67.92,2.98,2.23,3.92,3.92.95,1.7,1.42,3.68,1.42,5.95s-.48,4.22-1.44,5.93c-.96,1.71-2.28,3.02-3.96,3.94-1.68.92-3.55,1.38-5.61,1.38m0-2.44c1.44,0,2.78-.33,4-.98,1.23-.65,2.22-1.64,2.98-2.96.76-1.32,1.14-2.94,1.14-4.86s-.37-3.54-1.12-4.87c-.75-1.32-1.73-2.31-2.96-2.96-1.23-.65-2.56-.98-4-.98s-2.78.33-4,.98c-1.23.65-2.21,1.64-2.94,2.96-.73,1.32-1.1,2.94-1.1,4.87s.37,3.54,1.1,4.86c.73,1.32,1.71,2.31,2.92,2.96,1.21.65,2.54.98,3.98.98m31.27,2.44c-2.51,0-4.56-.58-6.15-1.74-1.59-1.16-2.48-2.74-2.66-4.74h2.88c.13,1.23.71,2.22,1.74,2.98,1.03.76,2.41,1.14,4.14,1.14,1.52,0,2.72-.36,3.58-1.08.87-.72,1.3-1.61,1.3-2.68,0-.75-.24-1.36-.72-1.84-.48-.48-1.09-.86-1.82-1.14-.73-.28-1.73-.58-2.98-.9-1.63-.43-2.95-.85-3.96-1.28-1.01-.43-1.88-1.06-2.58-1.9-.71-.84-1.06-1.97-1.06-3.38,0-1.07.32-2.06.96-2.96.64-.91,1.55-1.63,2.72-2.16,1.17-.53,2.51-.8,4-.8,2.35,0,4.24.59,5.69,1.78,1.44,1.19,2.22,2.82,2.32,4.9h-2.8c-.08-1.28-.58-2.32-1.5-3.1-.92-.79-2.18-1.18-3.78-1.18-1.42,0-2.56.33-3.44,1-.88.67-1.32,1.5-1.32,2.48,0,.85.26,1.56.78,2.1.52.55,1.17.97,1.94,1.28.77.31,1.81.65,3.12,1.02,1.57.43,2.83.84,3.76,1.24.93.4,1.73.99,2.4,1.76.67.77,1.01,1.8,1.04,3.08,0,1.17-.32,2.22-.96,3.14-.64.92-1.54,1.65-2.68,2.18-1.15.53-2.47.8-3.96.8m28.03,0c-2.51,0-4.56-.58-6.15-1.74-1.59-1.16-2.48-2.74-2.66-4.74h2.88c.13,1.23.71,2.22,1.74,2.98,1.03.76,2.41,1.14,4.14,1.14,1.52,0,2.72-.36,3.58-1.08.87-.72,1.3-1.61,1.3-2.68,0-.75-.24-1.36-.72-1.84-.48-.48-1.09-.86-1.82-1.14-.73-.28-1.73-.58-2.98-.9-1.63-.43-2.95-.85-3.96-1.28-1.01-.43-1.88-1.06-2.58-1.9-.71-.84-1.06-1.97-1.06-3.38,0-1.07.32-2.06.96-2.96.64-.91,1.55-1.63,2.72-2.16,1.17-.53,2.51-.8,4-.8,2.35,0,4.24.59,5.69,1.78,1.44,1.19,2.22,2.82,2.32,4.9h-2.8c-.08-1.28-.58-2.32-1.5-3.1s-2.18-1.18-3.78-1.18c-1.42,0-2.56.33-3.44,1-.88.67-1.32,1.5-1.32,2.48,0,.85.26,1.56.78,2.1.52.55,1.17.97,1.94,1.28.77.31,1.82.65,3.12,1.02,1.57.43,2.83.84,3.76,1.24.93.4,1.73.99,2.4,1.76.67.77,1.01,1.8,1.04,3.08,0,1.17-.32,2.22-.96,3.14-.64.92-1.54,1.65-2.68,2.18s-2.47.8-3.96.8m21.9-26.31c-.56,0-1.04-.2-1.44-.6-.4-.4-.6-.89-.6-1.48s.2-1.07.6-1.46c.4-.39.88-.58,1.44-.58s1.04.19,1.44.58c.4.39.6.88.6,1.46s-.2,1.08-.6,1.48c-.4.4-.88.6-1.44.6m1.4,25.99h-2.8v-21.86h2.8v21.86Zm16.74-17.02c.72-1.52,1.84-2.76,3.34-3.72,1.51-.96,3.29-1.44,5.35-1.44s3.79.46,5.36,1.38c1.57.92,2.81,2.23,3.7,3.92.89,1.7,1.34,3.66,1.34,5.91s-.45,4.22-1.34,5.93c-.89,1.71-2.14,3.03-3.72,3.96-1.59.94-3.37,1.4-5.35,1.4-2.08,0-3.88-.47-5.39-1.42-1.51-.95-2.61-2.18-3.3-3.7v4.8h-2.76v-29.63h2.76v12.61Zm16.26,6.05c0-1.82-.35-3.38-1.06-4.7-.71-1.32-1.67-2.33-2.9-3.02-1.23-.69-2.62-1.04-4.16-1.04s-2.86.36-4.1,1.08c-1.24.72-2.22,1.75-2.94,3.08-.72,1.34-1.08,2.88-1.08,4.64s.36,3.31,1.08,4.64,1.7,2.36,2.94,3.08c1.24.72,2.61,1.08,4.1,1.08s2.94-.35,4.16-1.06c1.23-.71,2.19-1.73,2.9-3.08.71-1.35,1.06-2.92,1.06-4.7m17.02-15.02c-.56,0-1.04-.2-1.44-.6-.4-.4-.6-.89-.6-1.48s.2-1.07.6-1.46c.4-.39.88-.58,1.44-.58s1.04.19,1.44.58c.4.39.6.88.6,1.46s-.2,1.08-.6,1.48c-.4.4-.88.6-1.44.6m1.4,25.99h-2.8v-21.86h2.8v21.86Zm16.78,0h-2.8v-29.63h2.8v29.63Zm15.38-25.99c-.56,0-1.04-.2-1.44-.6-.4-.4-.6-.89-.6-1.48s.2-1.07.6-1.46c.4-.39.88-.58,1.44-.58s1.04.19,1.44.58c.4.39.6.88.6,1.46s-.2,1.08-.6,1.48c-.4.4-.88.6-1.44.6m1.4,25.99h-2.8v-21.86h2.8v21.86Zm17.62-19.5v13.57c0,1.34.25,2.26.76,2.76.51.51,1.4.76,2.68.76h2.56v2.4h-3c-1.98,0-3.44-.46-4.4-1.38-.96-.92-1.44-2.44-1.44-4.54v-13.57h-3.04v-2.36h3.04v-5.49h2.84v5.49h6.01v2.36h-6.01Zm19.62-6.49c-.56,0-1.04-.2-1.44-.6-.4-.4-.6-.89-.6-1.48s.2-1.07.6-1.46c.4-.39.88-.58,1.44-.58s1.04.19,1.44.58c.4.39.6.88.6,1.46s-.2,1.08-.6,1.48c-.4.4-.88.6-1.44.6m1.4,25.99h-2.8v-21.86h2.8v21.86Zm33.75-12.05c0,.96-.03,1.7-.08,2.2h-18.14c.08,1.66.48,3.07,1.2,4.24.72,1.17,1.67,2.06,2.84,2.66,1.17.6,2.46.9,3.84.9,1.81,0,3.34-.44,4.58-1.32,1.24-.88,2.06-2.07,2.46-3.56h2.96c-.53,2.14-1.67,3.88-3.42,5.23-1.75,1.35-3.94,2.02-6.59,2.02-2.06,0-3.9-.46-5.53-1.38-1.63-.92-2.9-2.23-3.82-3.92-.92-1.69-1.38-3.68-1.38-5.95s.45-4.26,1.36-5.97c.91-1.71,2.18-3.02,3.8-3.92,1.63-.91,3.48-1.36,5.57-1.36s3.9.45,5.46,1.36c1.56.91,2.76,2.13,3.6,3.66.84,1.54,1.26,3.24,1.26,5.11m-2.84-.08c.03-1.63-.3-3.02-.98-4.16-.68-1.15-1.61-2.01-2.78-2.6-1.17-.59-2.46-.88-3.84-.88-2.08,0-3.86.67-5.33,2-1.47,1.34-2.28,3.22-2.44,5.65h15.38Zm23.1,12.45c-2.51,0-4.56-.58-6.15-1.74-1.59-1.16-2.48-2.74-2.66-4.74h2.88c.13,1.23.71,2.22,1.74,2.98,1.03.76,2.41,1.14,4.14,1.14,1.52,0,2.72-.36,3.58-1.08.87-.72,1.3-1.61,1.3-2.68,0-.75-.24-1.36-.72-1.84-.48-.48-1.09-.86-1.82-1.14-.73-.28-1.73-.58-2.98-.9-1.63-.43-2.95-.85-3.96-1.28-1.01-.43-1.88-1.06-2.58-1.9-.71-.84-1.06-1.97-1.06-3.38,0-1.07.32-2.06.96-2.96.64-.91,1.55-1.63,2.72-2.16,1.17-.53,2.51-.8,4-.8,2.35,0,4.24.59,5.68,1.78,1.44,1.19,2.22,2.82,2.32,4.9h-2.8c-.08-1.28-.58-2.32-1.5-3.1-.92-.79-2.18-1.18-3.78-1.18-1.42,0-2.56.33-3.44,1-.88.67-1.32,1.5-1.32,2.48,0,.85.26,1.56.78,2.1.52.55,1.17.97,1.94,1.28s1.81.65,3.12,1.02c1.57.43,2.83.84,3.76,1.24.93.4,1.73.99,2.4,1.76.67.77,1.01,1.8,1.04,3.08,0,1.17-.32,2.22-.96,3.14-.64.92-1.54,1.65-2.68,2.18-1.15.53-2.47.8-3.96.8"/><path class="cls-3" d="m146.25,257.96c1.06,1.69,1.94,3.45,2.89,5.15.99,1.76,1.97,3.53,2.98,5.28.98,1.71,1.94,3.42,2.95,5.1,1.01,1.69,2.04,3.36,3.09,5.02,1.08,1.7,2.19,3.4,3.32,5.07,1.09,1.62,2.23,3.22,3.39,4.87-.3.37-.53.69-.8.98-5.28,5.42-11.18,10.02-17.93,13.5-5.12,2.63-10.51,4.5-16.14,5.63-5.58,1.13-11.22,1.59-16.89,1.29-11.82-.64-22.82-4-32.88-10.32-9.88-6.22-17.69-14.42-23.42-24.6-3.72-6.6-6.21-13.65-7.59-21.1-.93-5.08-1.26-10.22-1.01-15.36.41-8.21,2.21-16.13,5.52-23.67,5.31-12.11,13.42-21.92,24.33-29.39,7.98-5.46,16.75-9,26.27-10.72,5.67-1.02,11.37-1.26,17.09-.88,8.56.55,16.76,2.61,24.46,6.45,5.21,2.6,9.96,5.85,14.32,9.68,4.93,4.32,9.24,9.21,13.16,14.47,4.77,6.42,8.94,13.2,12.83,20.17,4.08,7.31,8.09,14.67,12.21,21.97,2.85,5.03,5.94,9.91,9.53,14.46,2.36,3.01,4.96,5.79,7.97,8.18,4.26,3.38,9.08,5.46,14.48,6.2,4.88.66,9.67.38,14.41-.99,4.68-1.35,8.87-3.6,12.58-6.74,3.85-3.26,6.85-7.19,8.93-11.79,2.56-5.65,3.6-11.56,2.9-17.74-.74-6.59-3.18-12.51-7.35-17.68-3.78-4.68-8.49-8.13-14.1-10.33-3.86-1.51-7.87-2.31-12.01-2.35-8.31-.08-15.66,2.55-21.91,8.1-2.56,2.27-4.85,4.78-6.97,7.47-.34.44-.72.86-1.19,1.41-.41-.68-.73-1.21-1.04-1.75-2.67-4.67-5.28-9.36-8.02-13.99-2.7-4.58-5.66-9-8.85-13.26-.62-.83-.88-1.66-.88-2.7.02-22.54.02-42.6.02-65.14,0-.56.04-1.13.07-1.76.37-.06.65-.14.92-.16,3.72-.17,26.53-.05,28.01.16.06.28.15.6.16.93.04.69.04,1.39.04,2.08-.02,15.78-.03,29.07-.05,44.85v1.97c.44,0,.78.07,1.08,0,2.96-.82,5.96-1.43,9-1.78,2.23-.26,4.49-.45,6.74-.51,2.43-.07,4.86-.1,7.27.09,18.75,1.51,34.37,9.33,46.78,23.45,6.95,7.9,11.71,17.01,14.39,27.18,1.44,5.44,2.17,10.97,2.21,16.62.03,5.58-.53,11.07-1.82,16.5-1.95,8.25-5.36,15.85-10.17,22.82-6.08,8.8-13.81,15.81-23.16,21.02-6.72,3.75-13.89,6.24-21.47,7.56-4.92.85-9.87,1.18-14.85.94-14.04-.69-26.65-5.25-37.61-14.17-5.6-4.55-10.44-9.8-14.78-15.55-4.95-6.56-9.26-13.55-13.26-20.72-4.17-7.47-8.27-14.98-12.48-22.42-2.88-5.08-6.03-10-9.68-14.57-2.42-3.04-5.09-5.84-8.17-8.22-4.6-3.55-9.8-5.59-15.57-6.21-3.41-.37-6.81-.32-10.19.32-7.52,1.41-13.89,4.89-19.08,10.53-4.71,5.14-7.56,11.17-8.58,18.04-.98,6.63,0,13.01,2.8,19.11,2.58,5.59,6.42,10.13,11.46,13.64,4.43,3.09,9.35,5,14.71,5.74,4.7.65,9.34.39,13.91-.91,4.83-1.37,8.93-4.01,12.57-7.41,2.5-2.33,4.72-4.92,6.78-7.64.37-.49.66-1.07,1.33-1.47h-.02Z"/><path class="cls-3" d="m577.04,242.45c-.12,10.25-1.93,20.14-6.12,29.5-8.02,17.9-21.53,29.56-40.31,35.12-7.7,2.29-15.62,3.04-23.64,2.85-7.8-.19-15.42-1.39-22.76-4.03-18.66-6.74-31.25-19.61-38.1-38.14-2.13-5.77-3.35-11.76-3.93-17.89-.38-3.98-.45-7.97-.23-11.95.63-11.43,3.58-22.22,9.46-32.09,8.52-14.3,20.87-23.7,36.82-28.39,7.95-2.33,16.09-3.11,24.34-2.75,10.22.44,20,2.72,29.14,7.43,14.21,7.32,24.16,18.53,30.17,33.28,2.47,6.08,4.02,12.41,4.62,18.95.25,2.7.36,5.42.54,8.13h-.02Zm-103.19-.2c.21,2.29.34,4.61.63,6.89.64,4.91,2.11,9.58,4.5,13.93,4.74,8.62,11.83,14.18,21.46,16.41,4.66,1.08,9.37,1.21,14.11.62,4.58-.57,8.9-1.95,12.88-4.31,6.01-3.56,10.34-8.64,13.2-14.96,3.66-8.11,4.72-16.6,3.32-25.39-1.08-6.8-3.69-12.97-7.92-18.42-4.37-5.63-9.92-9.63-16.76-11.73-5.52-1.69-11.12-1.88-16.8-.88-6.18,1.09-11.63,3.68-16.29,7.91-3.51,3.19-6.2,6.99-8.2,11.28-2.76,5.91-3.98,12.15-4.14,18.65"/><path class="cls-3" d="m785.05,194.41c5.53,6,9.42,12.96,12.05,20.65,1.87,5.49,3.04,11.13,3.61,16.91.38,3.86.54,7.72.54,11.59v64.14c0,.68.09,1.37-.12,2.04-.22.07-.37.16-.53.16-10.29,0-20.57,0-30.85,0-.16,0-.32-.09-.59-.18-.02-.61-.06-1.23-.06-1.85,0-6.42,0-12.83,0-19.24,0-15.77.03-31.56,0-47.33-.02-5.89-1.04-11.62-3.5-17.02-3.46-7.59-9.06-12.87-17.05-15.49-3.72-1.22-7.55-1.68-11.45-1.57-11.01.3-19.62,5.07-25.89,14.07-3.54,5.07-5.49,10.77-6.28,16.89-.27,2.07-.34,4.14-.34,6.22v63.28c0,.68.07,1.37-.12,2.14-2.38.18-30.2.12-31.63-.06-.04-.3-.11-.62-.12-.95-.02-.46,0-.92,0-1.39v-125.17c0-.74.02-1.48.04-2.25.7-.29,1.34-.2,1.96-.2h26.61c.62,2.92.76,5.8,1.16,8.63.4,2.85.61,5.73,1.08,8.65.75-.26,1.13-.78,1.58-1.2,2.7-2.54,5.53-4.92,8.52-7.09,5.67-4.1,11.79-7.26,18.58-9.07,3.58-.95,7.23-1.49,10.94-1.69,7.66-.41,15.09.62,22.3,3.25,5.81,2.12,11.04,5.24,15.72,9.3"/><path class="cls-3" d="m330.23,264c.23.17.39.26.51.38,3.15,3.29,6.85,5.85,10.82,8.03,8.49,4.66,17.55,7.66,27.12,9.09,3.04.45,6.1.61,9.16.44,3.96-.22,7.76-1.15,11.34-2.88,2.26-1.09,4.29-2.51,5.96-4.39,2.9-3.25,3.89-7.01,2.93-11.26-.48-2.11-1.6-3.82-3.26-5.18-1.22-1-2.59-1.73-4.04-2.32-2.53-1.03-5.18-1.62-7.86-2.06-3.48-.57-7-.81-10.51-1.08-9.19-.71-18.22-2.26-26.9-5.52-5.45-2.05-10.54-4.73-14.97-8.55-6.51-5.6-10.3-12.65-11.32-21.19-.72-5.94-.26-11.76,1.72-17.44,2.08-5.93,5.67-10.81,10.44-14.85,4.32-3.66,9.23-6.33,14.49-8.35,5.53-2.12,11.25-3.47,17.11-4.24,6.56-.87,13.14-.83,19.72-.39,5.73.38,11.36,1.27,16.87,2.88,9.02,2.65,16.95,7.24,24.04,13.37.17.15.3.33.41.44,0,.15.02.2.02.26,0,.06-.03.12-.07.16-5.49,6.48-10.99,12.96-16.48,19.43-.27.31-.53.62-.8.91-.08.08-.2.11-.41.22-.31-.24-.69-.48-1.02-.78-5.21-4.62-11.21-7.7-17.99-9.25-3.5-.8-7.06-1.23-10.65-1.29-3.41-.06-6.82-.06-10.21.42-2.76.4-5.46.98-8.03,2.07-1.34.56-2.59,1.27-3.75,2.15-5.72,4.29-5.07,12.36-.69,16.26,1.53,1.37,3.27,2.37,5.15,3.15,3.12,1.28,6.39,2.04,9.73,2.41,3.85.43,7.71.69,11.56,1.05,7.9.73,15.7,1.93,23.24,4.51,4.17,1.43,8.14,3.27,11.79,5.78,7.79,5.35,12.4,12.75,14.14,21.99.76,4.06.98,8.16.64,12.26-.82,9.59-4.67,17.8-11.58,24.52-4.97,4.84-10.86,8.19-17.34,10.54-5.24,1.9-10.65,3.04-16.18,3.67-6.34.72-12.68.71-19.04.35-6.02-.34-11.96-1.15-17.8-2.65-11.72-3.03-21.88-8.87-30.66-17.16-.92-.87-1.82-1.78-2.72-2.68-.12-.12-.19-.28-.27-.41.62-1.25,14.1-20.89,15.63-22.79h.03Z"/><path class="cls-3" d="m619.2,125.9v183.92c-.48.06-.81.13-1.14.13h-29.48c-.34,0-.68-.04-1.11-.07-.06-.37-.13-.7-.16-1.01-.02-.46,0-.92,0-1.39V126.22c.46-.53.95-.39,1.4-.39,3.41-.02,6.82,0,10.23,0h18.21c.62,0,1.24.04,2.05.07Z"/><path class="cls-3" d="m629.73,179.72c1.71-.21,30.46-.21,31.98-.02.05.3.12.63.15.97.02.46,0,.92,0,1.39v125.51c0,.73.09,1.49-.12,2.22-.23.07-.38.16-.54.16h-31.28c-.09-.37-.19-.69-.21-1.01-.04-.46-.02-.92-.02-1.39v-125.51c0-.74.02-1.48.03-2.32h0Z"/><path class="cls-3" d="m661.64,157.43c-1.73.27-30.09.27-31.66.02-.05-.35-.16-.73-.16-1.11-.02-2.26,0-4.5,0-6.76v-21.66c0-.62.04-1.25.06-1.93.66-.29,1.3-.19,1.91-.19,7.51,0,15.02,0,22.53,0h7.07c.41.68.25,1.33.25,1.94.02,6.59,0,13.17,0,19.75v9.93h0Z"/><path class="cls-2" d="m821.34,157.24c3.45,0,6.81.88,10.1,2.65,3.29,1.77,5.84,4.3,7.68,7.59,1.83,3.29,2.75,6.73,2.75,10.3s-.91,6.95-2.71,10.21c-1.8,3.27-4.34,5.81-7.59,7.61-3.26,1.8-6.67,2.71-10.22,2.71s-6.96-.91-10.22-2.71c-3.26-1.8-5.79-4.34-7.61-7.61-1.81-3.26-2.72-6.67-2.72-10.21s.92-7.01,2.76-10.3c1.84-3.29,4.4-5.82,7.69-7.59,3.29-1.77,6.65-2.65,10.1-2.65h0Zm0,3.4c-2.89,0-5.7.74-8.43,2.22-2.73,1.48-4.87,3.59-6.41,6.35-1.55,2.75-2.32,5.61-2.32,8.59s.76,5.8,2.28,8.51c1.51,2.72,3.63,4.83,6.35,6.35,2.72,1.51,5.56,2.28,8.52,2.28s5.8-.76,8.52-2.28c2.72-1.51,4.84-3.63,6.35-6.35,1.51-2.71,2.26-5.55,2.26-8.51s-.77-5.84-2.3-8.59c-1.53-2.75-3.68-4.86-6.41-6.35-2.74-1.48-5.55-2.22-8.41-2.22Zm-9.01,28.5v-22.1h7.59c2.6,0,4.47.2,5.64.62,1.16.41,2.08,1.12,2.78,2.14.69,1.01,1.04,2.1,1.04,3.24,0,1.62-.58,3.02-1.72,4.22-1.16,1.2-2.69,1.87-4.59,2.01.78.33,1.41.72,1.88,1.17.89.87,1.97,2.33,3.27,4.39l2.69,4.33h-4.36l-1.97-3.49c-1.54-2.74-2.79-4.46-3.73-5.14-.66-.51-1.61-.76-2.86-.76h-2.1v9.4h-3.57v-.02Zm3.57-12.44h4.33c2.07,0,3.47-.31,4.23-.93.76-.62,1.13-1.44,1.13-2.45,0-.66-.18-1.24-.55-1.76-.37-.52-.87-.91-1.51-1.16-.64-.26-1.83-.38-3.57-.38h-4.06v6.67Z"/></g></g></svg>