<svg width="16" height="17" viewBox="0 0 16 17" fill="none" xmlns="http://www.w3.org/2000/svg">
<path d="M5.33337 7.83333V5.16667C5.33337 4.45942 5.61433 3.78115 6.11442 3.28105C6.61452 2.78095 7.2928 2.5 8.00004 2.5C8.70728 2.5 9.38556 2.78095 9.88566 3.28105C10.3858 3.78115 10.6667 4.45942 10.6667 5.16667V7.83333M3.33337 9.16667C3.33337 8.81304 3.47385 8.47391 3.7239 8.22386C3.97395 7.97381 4.31309 7.83333 4.66671 7.83333H11.3334C11.687 7.83333 12.0261 7.97381 12.2762 8.22386C12.5262 8.47391 12.6667 8.81304 12.6667 9.16667V13.1667C12.6667 13.5203 12.5262 13.8594 12.2762 14.1095C12.0261 14.3595 11.687 14.5 11.3334 14.5H4.66671C4.31309 14.5 3.97395 14.3595 3.7239 14.1095C3.47385 13.8594 3.33337 13.5203 3.33337 13.1667V9.16667ZM7.33337 11.1667C7.33337 11.3435 7.40361 11.513 7.52864 11.6381C7.65366 11.7631 7.82323 11.8333 8.00004 11.8333C8.17685 11.8333 8.34642 11.7631 8.47145 11.6381C8.59647 11.513 8.66671 11.3435 8.66671 11.1667C8.66671 10.9899 8.59647 10.8203 8.47145 10.6953C8.34642 10.5702 8.17685 10.5 8.00004 10.5C7.82323 10.5 7.65366 10.5702 7.52864 10.6953C7.40361 10.8203 7.33337 10.9899 7.33337 11.1667Z" stroke="#C50035" stroke-width="1.3" stroke-linecap="round" stroke-linejoin="round"/>
</svg>
