<svg width="16" height="17" viewBox="0 0 16 17" fill="none" xmlns="http://www.w3.org/2000/svg">
<path d="M2 5.16665C2 4.81302 2.14048 4.47389 2.39052 4.22384C2.64057 3.97379 2.97971 3.83331 3.33333 3.83331H12.6667C13.0203 3.83331 13.3594 3.97379 13.6095 4.22384C13.8595 4.47389 14 4.81302 14 5.16665M2 5.16665V11.8333C2 12.1869 2.14048 12.5261 2.39052 12.7761C2.64057 13.0262 2.97971 13.1666 3.33333 13.1666H12.6667C13.0203 13.1666 13.3594 13.0262 13.6095 12.7761C13.8595 12.5261 14 12.1869 14 11.8333V5.16665M2 5.16665L8 9.16665L14 5.16665" stroke="#C50035" stroke-width="1.3" stroke-linecap="round" stroke-linejoin="round"/>
</svg>
